<?xml version="1.0" encoding="UTF-8" standalone="no"?>
<!-- Created with Inkscape (http://www.inkscape.org/) -->

<svg
   xmlns:dc="http://purl.org/dc/elements/1.1/"
   xmlns:cc="http://creativecommons.org/ns#"
   xmlns:rdf="http://www.w3.org/1999/02/22-rdf-syntax-ns#"
   xmlns:svg="http://www.w3.org/2000/svg"
   xmlns="http://www.w3.org/2000/svg"
   xmlns:sodipodi="http://sodipodi.sourceforge.net/DTD/sodipodi-0.dtd"
   xmlns:inkscape="http://www.inkscape.org/namespaces/inkscape"
   id="svg2985"
   version="1.1"
   inkscape:version="0.48.2 r9819"
   width="350"
   height="350"
   sodipodi:docname="op-logo.svg">
  <metadata
     id="metadata2991">
    <rdf:RDF>
      <cc:Work
         rdf:about="">
        <dc:format>image/svg+xml</dc:format>
        <dc:type
           rdf:resource="http://purl.org/dc/dcmitype/StillImage" />
        <dc:title />
      </cc:Work>
    </rdf:RDF>
  </metadata>
  <defs
     id="defs2989" />
  <sodipodi:namedview
     pagecolor="#ffffff"
     bordercolor="#666666"
     borderopacity="1"
     objecttolerance="10"
     gridtolerance="10"
     guidetolerance="10"
     inkscape:pageopacity="0"
     inkscape:pageshadow="2"
     inkscape:window-width="505"
     inkscape:window-height="425"
     id="namedview2987"
     showgrid="false"
     inkscape:zoom="1.907168"
     inkscape:cx="84.218985"
     inkscape:cy="157.72849"
     inkscape:window-x="987"
     inkscape:window-y="135"
     inkscape:window-maximized="1"
     inkscape:current-layer="svg2985"
     showguides="true"
     inkscape:guide-bbox="true" />
  <path
     style="fill:#000000"
     d="m 148.18197,343.96959 c -4.6754,-2.8505 -7.20858,-9.23648 -8.27073,-20.85001 -4.26618,-46.64594 -4.34618,-48.49577 -3.1109,-71.93242 1.42756,-27.08469 2.69886,-39.56609 9.18604,-90.18716 6.4481,-50.31613 6.99586,-55.40518 8.36006,-77.671669 L 155.5,64.5 171.80025,64.224988 c 16.15924,-0.272633 21.989,0.437988 25.6691,3.128943 1.86016,1.360179 1.79165,2.050245 -2.7571,27.770454 -5.99256,33.884065 -8.67897,54.500625 -8.97533,68.880335 L 185.5,175.5 197,175.38071 c 19.31323,-0.20034 32.48115,-4.91928 42.97407,-15.40046 16.62582,-16.60723 18.34796,-45.08924 4.46977,-73.924437 C 238.52426,73.756496 233.06557,66.232517 223.28525,56.891918 215.82397,49.766092 204.26078,42.608989 197.24549,40.774447 196.01047,40.451483 195,39.538275 195,38.745096 c 0,-2.304237 4.73944,-22.860874 6.26808,-27.18687 2.08522,-5.9011215 3.33641,-6.270324 12.38342,-3.6541091 17.33781,5.0137471 31.15559,12.4914381 44.28096,23.9632901 38.48817,33.639448 49.58384,96.506923 24.41264,138.320573 -12.30852,20.44654 -31.85221,33.72705 -57.95635,39.38304 -7.11041,1.54061 -29.19164,2.15326 -41.852,1.16118 -2.52477,-0.19784 -3.29526,0.36505 -5.20705,3.80412 -5.50847,9.90903 -5.69975,12.03034 -5.81289,64.46368 -0.11304,52.38722 -0.32416,54.67149 -5.68261,61.48365 -4.27678,5.43705 -11.96255,6.95482 -17.65223,3.48594 z M 52.112326,260.48717 C 39.892243,257.04718 28.179224,248.51311 21.073747,237.87258 13.668387,226.78296 8.1734304,204.52435 5.8702214,176.28713 4.48772,159.33773 5.7065448,148.4812 10.256541,137.21655 21.993436,108.15892 56.159858,83.358408 78.156314,87.929869 c 11.566168,2.403764 21.511998,9.18362 27.720816,18.896681 7.46663,11.68076 11.00412,31.74377 9.16025,51.95262 -2.2022,24.13605 -8.91817,58.06158 -14.94012,75.46956 -3.906581,11.29296 -13.573242,22.31162 -22.59726,25.75775 -5.0165,1.91573 -19.32736,2.18669 -25.387674,0.48069 z m 14.648077,-40.64811 c 9.608052,-5.9381 13.336379,-17.41136 15.809139,-48.64979 1.496672,-18.90749 1.01272,-27.46838 -1.954014,-34.56563 -1.96644,-4.70427 -4.202148,-6.05519 -9.97619,-6.0281 -12.728959,0.0597 -23.73837,7.74533 -30.380157,21.20822 -2.518321,7.06299 -2.947161,14.33438 -3.593987,21.72502 -1.702572,19.4536 3.159813,35.91928 7.615194,42.58885 4.682487,7.00954 14.523717,8.63869 22.480015,3.72143 z M 65.278937,61.738847 C 53.291385,56.598458 46.231786,48.863277 43.861531,38.271861 42.520577,32.279847 43.286804,29.742253 46.607183,29.178795 47.648232,29.002132 59.975,25.0319 74,20.356057 104.01906,10.3479 118.65443,6.413331 131.49606,4.8988339 c 22.24717,-2.6237532 38.35433,3.9770058 45.87941,18.8015061 3.35867,6.616608 1.74056,8.474461 -12.50468,14.357459 -10.0039,4.131412 -20.2997,6.933733 -47.09472,12.818283 -12.49816,2.744767 -27.348163,6.628555 -33.000001,8.63064 -13.61963,4.824566 -13.48691,4.809372 -19.497132,2.232125 z"
     id="path2997"
     inkscape:connector-curvature="0"
     sodipodi:nodetypes="ssssscsssscssssssssssssssssssssssssssssssccssssssssssss" />
  <text
     xml:space="preserve"
     style="font-size:40px;font-style:normal;font-variant:normal;font-weight:normal;font-stretch:normal;line-height:80.00000119%;letter-spacing:0px;word-spacing:0px;fill:#000000;fill-opacity:1;stroke:none;font-family:Century Gothic;-inkscape-font-specification:Century Gothic"
     x="198.94531"
     y="264.45313"
     id="text3033"
     sodipodi:linespacing="80.000001%"><tspan
       sodipodi:role="line"
       id="tspan3035"
       x="198.94531"
       y="264.45313">otto</tspan><tspan
       sodipodi:role="line"
       x="198.94531"
       y="296.45313"
       id="tspan3037">pankok</tspan><tspan
       sodipodi:role="line"
       x="198.94531"
       y="328.45313"
       id="tspan3039">schule</tspan></text>
</svg>
